<mxfile host="app.diagrams.net" agent="Mozilla/5.0 (Windows NT 10.0; Win64; x64) AppleWebKit/537.36 (KHTML, like Gecko) Chrome/135.0.0.0 Safari/537.36" version="27.0.9">
  <diagram name="第 1 页" id="OUOKLxTIZzPr1PjZ38lA">
    <mxGraphModel dx="570" dy="300" grid="1" gridSize="10" guides="1" tooltips="1" connect="1" arrows="1" fold="1" page="1" pageScale="1" pageWidth="827" pageHeight="1169" math="0" shadow="0">
      <root>
        <mxCell id="0" />
        <mxCell id="1" parent="0" />
        <mxCell id="1n6asW6XGqU4qY5aJe08-2" value="" style="rounded=0;whiteSpace=wrap;html=1;fontSize=8;" vertex="1" parent="1">
          <mxGeometry x="40" y="60" width="110" height="260" as="geometry" />
        </mxCell>
        <mxCell id="1n6asW6XGqU4qY5aJe08-3" value="menu" style="rounded=0;whiteSpace=wrap;html=1;strokeColor=#D5E8D4;fillColor=#99CCFF;" vertex="1" parent="1">
          <mxGeometry x="40" y="40" width="480" height="20" as="geometry" />
        </mxCell>
        <mxCell id="1n6asW6XGqU4qY5aJe08-4" value="&lt;font style=&quot;font-size: 8px;&quot;&gt;已登记&lt;/font&gt;" style="rounded=0;whiteSpace=wrap;html=1;" vertex="1" parent="1">
          <mxGeometry x="41" y="60" width="50" height="20" as="geometry" />
        </mxCell>
        <mxCell id="1n6asW6XGqU4qY5aJe08-5" value="&lt;font style=&quot;font-size: 8px;&quot;&gt;未登记&lt;/font&gt;" style="rounded=0;whiteSpace=wrap;html=1;" vertex="1" parent="1">
          <mxGeometry x="97" y="60" width="50" height="20" as="geometry" />
        </mxCell>
        <mxCell id="1n6asW6XGqU4qY5aJe08-6" value="&lt;font style=&quot;font-size: 8px;&quot;&gt;患者1&lt;/font&gt;" style="rounded=0;whiteSpace=wrap;html=1;align=left;" vertex="1" parent="1">
          <mxGeometry x="40" y="80" width="110" height="20" as="geometry" />
        </mxCell>
        <mxCell id="1n6asW6XGqU4qY5aJe08-7" value="&lt;font style=&quot;font-size: 8px;&quot;&gt;患者5&lt;/font&gt;" style="rounded=0;whiteSpace=wrap;html=1;align=left;" vertex="1" parent="1">
          <mxGeometry x="40" y="160" width="110" height="20" as="geometry" />
        </mxCell>
        <mxCell id="1n6asW6XGqU4qY5aJe08-8" value="&lt;font style=&quot;font-size: 8px;&quot;&gt;患者4&lt;/font&gt;" style="rounded=0;whiteSpace=wrap;html=1;align=left;" vertex="1" parent="1">
          <mxGeometry x="40" y="140" width="110" height="20" as="geometry" />
        </mxCell>
        <mxCell id="1n6asW6XGqU4qY5aJe08-9" value="&lt;font style=&quot;font-size: 8px;&quot;&gt;患者3&lt;/font&gt;" style="rounded=0;whiteSpace=wrap;html=1;align=left;" vertex="1" parent="1">
          <mxGeometry x="40" y="120" width="110" height="20" as="geometry" />
        </mxCell>
        <mxCell id="1n6asW6XGqU4qY5aJe08-10" value="&lt;font style=&quot;font-size: 8px;&quot;&gt;患者2&lt;/font&gt;" style="rounded=0;whiteSpace=wrap;html=1;align=left;" vertex="1" parent="1">
          <mxGeometry x="40" y="100" width="110" height="20" as="geometry" />
        </mxCell>
        <mxCell id="1n6asW6XGqU4qY5aJe08-11" value="" style="rounded=0;whiteSpace=wrap;html=1;fillColor=#FFFFFF;" vertex="1" parent="1">
          <mxGeometry x="160" y="80" width="230" height="240" as="geometry" />
        </mxCell>
        <mxCell id="1n6asW6XGqU4qY5aJe08-12" value="" style="rounded=0;whiteSpace=wrap;html=1;" vertex="1" parent="1">
          <mxGeometry x="400" y="80" width="120" height="240" as="geometry" />
        </mxCell>
        <mxCell id="1n6asW6XGqU4qY5aJe08-14" value="" style="rounded=0;whiteSpace=wrap;html=1;fillColor=#E6D0DE;" vertex="1" parent="1">
          <mxGeometry x="160" y="60" width="360" height="20" as="geometry" />
        </mxCell>
        <mxCell id="1n6asW6XGqU4qY5aJe08-15" value="&lt;h6&gt;&lt;font style=&quot;font-size: 6px;&quot;&gt;患者|女|28岁&lt;/font&gt;&lt;/h6&gt;" style="rounded=0;whiteSpace=wrap;html=1;" vertex="1" parent="1">
          <mxGeometry x="170" y="65" width="50" height="10" as="geometry" />
        </mxCell>
        <mxCell id="1n6asW6XGqU4qY5aJe08-16" value="&lt;h6&gt;&lt;font style=&quot;font-size: 6px;&quot;&gt;患者|女|28岁&lt;/font&gt;&lt;/h6&gt;" style="rounded=0;whiteSpace=wrap;html=1;" vertex="1" parent="1">
          <mxGeometry x="220" y="65" width="50" height="10" as="geometry" />
        </mxCell>
        <mxCell id="1n6asW6XGqU4qY5aJe08-17" value="&lt;h6&gt;&lt;font style=&quot;font-size: 6px;&quot;&gt;患者|女|28岁&lt;/font&gt;&lt;/h6&gt;" style="rounded=0;whiteSpace=wrap;html=1;" vertex="1" parent="1">
          <mxGeometry x="270" y="65" width="50" height="10" as="geometry" />
        </mxCell>
        <mxCell id="1n6asW6XGqU4qY5aJe08-19" value="" style="rounded=0;whiteSpace=wrap;html=1;fillColor=#FFFFCC;" vertex="1" parent="1">
          <mxGeometry x="400" y="80" width="120" height="20" as="geometry" />
        </mxCell>
        <mxCell id="1n6asW6XGqU4qY5aJe08-20" value="&lt;font style=&quot;font-size: 8px;&quot;&gt;报告模板&lt;/font&gt;" style="rounded=1;whiteSpace=wrap;html=1;" vertex="1" parent="1">
          <mxGeometry x="410" y="80" width="50" height="20" as="geometry" />
        </mxCell>
        <mxCell id="1n6asW6XGqU4qY5aJe08-21" value="&lt;font style=&quot;font-size: 8px;&quot;&gt;历史记录&lt;/font&gt;" style="rounded=1;whiteSpace=wrap;html=1;" vertex="1" parent="1">
          <mxGeometry x="460" y="80" width="50" height="20" as="geometry" />
        </mxCell>
        <mxCell id="1n6asW6XGqU4qY5aJe08-22" value="&lt;font style=&quot;font-size: 7px; background-color: light-dark(#ffffff, var(--ge-dark-color, #121212)); line-height: 10%;&quot;&gt;编辑&lt;/font&gt;" style="rounded=1;whiteSpace=wrap;html=1;" vertex="1" parent="1">
          <mxGeometry x="117" y="85" width="30" height="10" as="geometry" />
        </mxCell>
        <mxCell id="1n6asW6XGqU4qY5aJe08-23" value="&lt;font style=&quot;font-size: 7px; background-color: light-dark(#ffffff, var(--ge-dark-color, #121212)); line-height: 10%;&quot;&gt;编辑&lt;/font&gt;" style="rounded=1;whiteSpace=wrap;html=1;" vertex="1" parent="1">
          <mxGeometry x="117" y="105" width="30" height="10" as="geometry" />
        </mxCell>
        <mxCell id="1n6asW6XGqU4qY5aJe08-24" value="&lt;font style=&quot;font-size: 7px; background-color: light-dark(#ffffff, var(--ge-dark-color, #121212)); line-height: 10%;&quot;&gt;编辑&lt;/font&gt;" style="rounded=1;whiteSpace=wrap;html=1;" vertex="1" parent="1">
          <mxGeometry x="117" y="125" width="30" height="10" as="geometry" />
        </mxCell>
        <mxCell id="1n6asW6XGqU4qY5aJe08-25" value="&lt;font style=&quot;font-size: 7px; background-color: light-dark(#ffffff, var(--ge-dark-color, #121212)); line-height: 10%;&quot;&gt;编辑&lt;/font&gt;" style="rounded=1;whiteSpace=wrap;html=1;" vertex="1" parent="1">
          <mxGeometry x="117" y="145" width="30" height="10" as="geometry" />
        </mxCell>
        <mxCell id="1n6asW6XGqU4qY5aJe08-26" value="&lt;font style=&quot;font-size: 7px; background-color: light-dark(#ffffff, var(--ge-dark-color, #121212)); line-height: 10%;&quot;&gt;编辑&lt;/font&gt;" style="rounded=1;whiteSpace=wrap;html=1;" vertex="1" parent="1">
          <mxGeometry x="117" y="165" width="30" height="10" as="geometry" />
        </mxCell>
        <mxCell id="1n6asW6XGqU4qY5aJe08-27" value="&lt;span style=&quot;font-size: 5px;&quot;&gt;检查所见&lt;/span&gt;" style="rounded=1;whiteSpace=wrap;html=1;fillColor=#E6FFCC;align=left;verticalAlign=top;" vertex="1" parent="1">
          <mxGeometry x="170" y="105" width="210" height="85" as="geometry" />
        </mxCell>
        <mxCell id="1n6asW6XGqU4qY5aJe08-28" value="&lt;span style=&quot;font-size: 5px;&quot;&gt;检查结论&lt;/span&gt;" style="rounded=1;whiteSpace=wrap;html=1;fillColor=#E6FFCC;align=left;verticalAlign=top;" vertex="1" parent="1">
          <mxGeometry x="170" y="200" width="210" height="85" as="geometry" />
        </mxCell>
        <mxCell id="1n6asW6XGqU4qY5aJe08-29" value="" style="rounded=1;whiteSpace=wrap;html=1;fillColor=#E6FFCC;" vertex="1" parent="1">
          <mxGeometry x="414" y="190" width="90" height="50" as="geometry" />
        </mxCell>
        <mxCell id="1n6asW6XGqU4qY5aJe08-30" value="" style="rounded=1;whiteSpace=wrap;html=1;fillColor=#E6FFCC;" vertex="1" parent="1">
          <mxGeometry x="414" y="250" width="90" height="50" as="geometry" />
        </mxCell>
        <mxCell id="1n6asW6XGqU4qY5aJe08-31" value="&lt;font style=&quot;font-size: 8px;&quot;&gt;模板1&lt;/font&gt;" style="rounded=0;whiteSpace=wrap;html=1;align=left;" vertex="1" parent="1">
          <mxGeometry x="413" y="105" width="91" height="15" as="geometry" />
        </mxCell>
        <mxCell id="1n6asW6XGqU4qY5aJe08-32" value="&lt;font style=&quot;font-size: 8px;&quot;&gt;模板2&lt;/font&gt;" style="rounded=0;whiteSpace=wrap;html=1;align=left;" vertex="1" parent="1">
          <mxGeometry x="413" y="120" width="91" height="15" as="geometry" />
        </mxCell>
        <mxCell id="1n6asW6XGqU4qY5aJe08-35" value="&lt;font style=&quot;font-size: 7px; background-color: light-dark(#ffffff, var(--ge-dark-color, #121212)); line-height: 10%;&quot;&gt;查看图像&lt;/font&gt;&lt;span style=&quot;color: rgba(0, 0, 0, 0); font-family: monospace; font-size: 0px; text-align: start; text-wrap-mode: nowrap;&quot;&gt;%3CmxGraphModel%3E%3Croot%3E%3CmxCell%20id%3D%220%22%2F%3E%3CmxCell%20id%3D%221%22%20parent%3D%220%22%2F%3E%3CmxCell%20id%3D%222%22%20value%3D%22%26lt%3Bfont%20style%3D%26quot%3Bfont-size%3A%207px%3B%20background-color%3A%20light-dark(%23ffffff%2C%20var(--ge-dark-color%2C%20%23121212))%3B%20line-height%3A%2010%25%3B%26quot%3B%26gt%3B%E7%BC%96%E8%BE%91%26lt%3B%2Ffont%26gt%3B%22%20style%3D%22rounded%3D1%3BwhiteSpace%3Dwrap%3Bhtml%3D1%3B%22%20vertex%3D%221%22%20parent%3D%221%22%3E%3CmxGeometry%20x%3D%22117%22%20y%3D%2285%22%20width%3D%2230%22%20height%3D%2210%22%20as%3D%22geometry%22%2F%3E%3C%2FmxCell%3E%3C%2Froot%3E%3C%2FmxGraphModel%3E&lt;/span&gt;" style="rounded=1;whiteSpace=wrap;html=1;" vertex="1" parent="1">
          <mxGeometry x="87" y="85" width="30" height="10" as="geometry" />
        </mxCell>
        <mxCell id="1n6asW6XGqU4qY5aJe08-36" value="&lt;font style=&quot;font-size: 7px; background-color: light-dark(#ffffff, var(--ge-dark-color, #121212)); line-height: 10%;&quot;&gt;查看图像&lt;/font&gt;&lt;span style=&quot;color: rgba(0, 0, 0, 0); font-family: monospace; font-size: 0px; text-align: start; text-wrap-mode: nowrap;&quot;&gt;%3CmxGraphModel%3E%3Croot%3E%3CmxCell%20id%3D%220%22%2F%3E%3CmxCell%20id%3D%221%22%20parent%3D%220%22%2F%3E%3CmxCell%20id%3D%222%22%20value%3D%22%26lt%3Bfont%20style%3D%26quot%3Bfont-size%3A%207px%3B%20background-color%3A%20light-dark(%23ffffff%2C%20var(--ge-dark-color%2C%20%23121212))%3B%20line-height%3A%2010%25%3B%26quot%3B%26gt%3B%E7%BC%96%E8%BE%91%26lt%3B%2Ffont%26gt%3B%22%20style%3D%22rounded%3D1%3BwhiteSpace%3Dwrap%3Bhtml%3D1%3B%22%20vertex%3D%221%22%20parent%3D%221%22%3E%3CmxGeometry%20x%3D%22117%22%20y%3D%2285%22%20width%3D%2230%22%20height%3D%2210%22%20as%3D%22geometry%22%2F%3E%3C%2FmxCell%3E%3C%2Froot%3E%3C%2FmxGraphModel%3E&lt;/span&gt;" style="rounded=1;whiteSpace=wrap;html=1;" vertex="1" parent="1">
          <mxGeometry x="87" y="125" width="30" height="10" as="geometry" />
        </mxCell>
        <mxCell id="1n6asW6XGqU4qY5aJe08-37" value="&lt;font style=&quot;font-size: 7px; background-color: light-dark(#ffffff, var(--ge-dark-color, #121212)); line-height: 10%;&quot;&gt;查看图像&lt;/font&gt;&lt;span style=&quot;color: rgba(0, 0, 0, 0); font-family: monospace; font-size: 0px; text-align: start; text-wrap-mode: nowrap;&quot;&gt;%3CmxGraphModel%3E%3Croot%3E%3CmxCell%20id%3D%220%22%2F%3E%3CmxCell%20id%3D%221%22%20parent%3D%220%22%2F%3E%3CmxCell%20id%3D%222%22%20value%3D%22%26lt%3Bfont%20style%3D%26quot%3Bfont-size%3A%207px%3B%20background-color%3A%20light-dark(%23ffffff%2C%20var(--ge-dark-color%2C%20%23121212))%3B%20line-height%3A%2010%25%3B%26quot%3B%26gt%3B%E7%BC%96%E8%BE%91%26lt%3B%2Ffont%26gt%3B%22%20style%3D%22rounded%3D1%3BwhiteSpace%3Dwrap%3Bhtml%3D1%3B%22%20vertex%3D%221%22%20parent%3D%221%22%3E%3CmxGeometry%20x%3D%22117%22%20y%3D%2285%22%20width%3D%2230%22%20height%3D%2210%22%20as%3D%22geometry%22%2F%3E%3C%2FmxCell%3E%3C%2Froot%3E%3C%2FmxGraphModel%3E&lt;/span&gt;" style="rounded=1;whiteSpace=wrap;html=1;" vertex="1" parent="1">
          <mxGeometry x="87" y="105" width="30" height="10" as="geometry" />
        </mxCell>
        <mxCell id="1n6asW6XGqU4qY5aJe08-38" value="&lt;font style=&quot;font-size: 7px; background-color: light-dark(#ffffff, var(--ge-dark-color, #121212)); line-height: 10%;&quot;&gt;查看图像&lt;/font&gt;&lt;span style=&quot;color: rgba(0, 0, 0, 0); font-family: monospace; font-size: 0px; text-align: start; text-wrap-mode: nowrap;&quot;&gt;%3CmxGraphModel%3E%3Croot%3E%3CmxCell%20id%3D%220%22%2F%3E%3CmxCell%20id%3D%221%22%20parent%3D%220%22%2F%3E%3CmxCell%20id%3D%222%22%20value%3D%22%26lt%3Bfont%20style%3D%26quot%3Bfont-size%3A%207px%3B%20background-color%3A%20light-dark(%23ffffff%2C%20var(--ge-dark-color%2C%20%23121212))%3B%20line-height%3A%2010%25%3B%26quot%3B%26gt%3B%E7%BC%96%E8%BE%91%26lt%3B%2Ffont%26gt%3B%22%20style%3D%22rounded%3D1%3BwhiteSpace%3Dwrap%3Bhtml%3D1%3B%22%20vertex%3D%221%22%20parent%3D%221%22%3E%3CmxGeometry%20x%3D%22117%22%20y%3D%2285%22%20width%3D%2230%22%20height%3D%2210%22%20as%3D%22geometry%22%2F%3E%3C%2FmxCell%3E%3C%2Froot%3E%3C%2FmxGraphModel%3E&lt;/span&gt;" style="rounded=1;whiteSpace=wrap;html=1;" vertex="1" parent="1">
          <mxGeometry x="87" y="145" width="30" height="10" as="geometry" />
        </mxCell>
        <mxCell id="1n6asW6XGqU4qY5aJe08-39" value="&lt;font style=&quot;font-size: 7px; background-color: light-dark(#ffffff, var(--ge-dark-color, #121212)); line-height: 10%;&quot;&gt;查看图像&lt;/font&gt;&lt;span style=&quot;color: rgba(0, 0, 0, 0); font-family: monospace; font-size: 0px; text-align: start; text-wrap-mode: nowrap;&quot;&gt;%3CmxGraphModel%3E%3Croot%3E%3CmxCell%20id%3D%220%22%2F%3E%3CmxCell%20id%3D%221%22%20parent%3D%220%22%2F%3E%3CmxCell%20id%3D%222%22%20value%3D%22%26lt%3Bfont%20style%3D%26quot%3Bfont-size%3A%207px%3B%20background-color%3A%20light-dark(%23ffffff%2C%20var(--ge-dark-color%2C%20%23121212))%3B%20line-height%3A%2010%25%3B%26quot%3B%26gt%3B%E7%BC%96%E8%BE%91%26lt%3B%2Ffont%26gt%3B%22%20style%3D%22rounded%3D1%3BwhiteSpace%3Dwrap%3Bhtml%3D1%3B%22%20vertex%3D%221%22%20parent%3D%221%22%3E%3CmxGeometry%20x%3D%22117%22%20y%3D%2285%22%20width%3D%2230%22%20height%3D%2210%22%20as%3D%22geometry%22%2F%3E%3C%2FmxCell%3E%3C%2Froot%3E%3C%2FmxGraphModel%3E&lt;/span&gt;" style="rounded=1;whiteSpace=wrap;html=1;" vertex="1" parent="1">
          <mxGeometry x="87" y="165" width="30" height="10" as="geometry" />
        </mxCell>
      </root>
    </mxGraphModel>
  </diagram>
</mxfile>
